<svg xmlns="http://www.w3.org/2000/svg" width="137.619" height="189.832" viewBox="0 0 137.619 189.832">
  <g id="Group_7" data-name="Group 7" transform="translate(5397.958 -3481.148)">
    <g id="body_Coffee" data-name="body/Coffee" transform="translate(-5397.958 3545.105)">
      <path id="_Background" data-name="ðŸŽ¨ Background" d="M24.256,125.874h0a1.33,1.33,0,0,1-1.043-.457,1.73,1.73,0,0,1-.351-1.376c.178-1.181.351-2.382.518-3.543v-.006c.092-.64.188-1.3.283-1.954a43.765,43.765,0,0,1-11.13,1.53,34.458,34.458,0,0,1-4.744-.322,30.715,30.715,0,0,1-4.667-1.022c-.073-.074-.1-.135-.081-.181.033-.079.2-.116.528-.116.122,0,.25,0,.381.01h.03c.113,0,.219.009.3.009a.708.708,0,0,0,.174-.014,9.169,9.169,0,0,1-3-3.374,11.186,11.186,0,0,1-.816-2.051,15.1,15.1,0,0,1-.459-2.218,26.211,26.211,0,0,1-.14-4.71c.077-1.593.242-3.171.4-4.7v0c.089-.843.172-1.64.238-2.411.562-3.623,1.074-7.386,1.569-11.025v0c1.264-9.294,2.571-18.9,4.918-28.052.606-2.363,1.27-4.644,1.973-6.779.753-2.288,1.582-4.5,2.462-6.578.933-2.2,1.958-4.327,3.048-6.323a63.262,63.262,0,0,1,3.729-6.015,43.37,43.37,0,0,1,4.727-5.37A39.635,39.635,0,0,1,28.7,24.338a34.616,34.616,0,0,1,6.315-3.311,30.449,30.449,0,0,1,6.912-1.847l.265-.036c.458-.061.934-.117,1.4-.17C46,18.693,48.5,18.4,50.539,17.132a15.42,15.42,0,0,0,2.67-3.038,15.189,15.189,0,0,1,1.869-2.247,4.178,4.178,0,0,1,1.049-.719,2.936,2.936,0,0,1,1.22-.279h.015a2.331,2.331,0,0,1,1.083.355c.394.216.815.507,1.261.814.417.288.848.585,1.291.845a9.878,9.878,0,0,1,.735-2.871,9.928,9.928,0,0,0,.556-1.852l.017-.12c.043-.311.066-.619.089-.916a4.508,4.508,0,0,1,1.726-3.737,12.047,12.047,0,0,1,2.411-1.38A21.074,21.074,0,0,1,69.589.924,27.244,27.244,0,0,1,73.016.241,26.583,26.583,0,0,1,76.536,0a18.9,18.9,0,0,1,4.136.419,9.49,9.49,0,0,1,3.289,1.34,11.193,11.193,0,0,1,2.125,1.924,12.966,12.966,0,0,1,1.522,2.23,32.464,32.464,0,0,1,2.06,5.03c.448,1.29.91,2.625,1.489,3.915a3.521,3.521,0,0,1,1.511-.31,5.656,5.656,0,0,1,2.724.75,4.482,4.482,0,0,1,1.056.82,2.671,2.671,0,0,1,.617,1.013,6.449,6.449,0,0,1,.789,2.592h0a9.967,9.967,0,0,0,.463,1.938c1.336.213,2.632.482,3.853.8a33.248,33.248,0,0,1,3.448,1.1,28.455,28.455,0,0,1,3.069,1.383A25.575,25.575,0,0,1,111.4,26.6a24.355,24.355,0,0,1,2.389,1.9,24.641,24.641,0,0,1,2.087,2.132,26.41,26.41,0,0,1,1.812,2.349,29.777,29.777,0,0,1,1.563,2.55,37.923,37.923,0,0,1,2.481,5.637,59.1,59.1,0,0,1,1.795,6.244c.965,4.124,1.641,8.493,2.361,13.784.961,5.421,2.285,10.935,3.566,16.268h0c.831,3.459,1.69,7.036,2.445,10.565.847,3.959,1.469,7.431,1.9,10.615a83.388,83.388,0,0,1,.808,10.688c.013,1.826-.047,3.636-.178,5.378-.138,1.829-.359,3.647-.658,5.405a11.435,11.435,0,0,1,1.116,2,1.975,1.975,0,0,1,.267,1.063,2.223,2.223,0,0,1-.294,1.032,1.93,1.93,0,0,1-1.67,1.017h0l-.087,0c-.57-.05-1.148-.106-1.707-.161h0c-1.419-.138-2.886-.28-4.343-.335-2.956-.1-6.14-.153-9.732-.153-2.094,0-4.37.016-7.162.052l-.768.01c-11.393.142-22.972.342-34.17.536C58.518,125.465,41.246,125.764,24.256,125.874Zm62.185-63.6h0c-.389,1.678.239,3.044.9,4.489a15.464,15.464,0,0,1,.933,2.372,7.833,7.833,0,0,1,.045,2.249c-.022.32-.042.622-.045.867a4.377,4.377,0,0,0,.525,1.49,3.34,3.34,0,0,1,.521,1.894,16.922,16.922,0,0,1-1.6,4.155A19.622,19.622,0,0,0,86.273,83.3a6.2,6.2,0,0,0-.218,1.748,4.646,4.646,0,0,0,.386,1.743c1.053,2.073,4.228,3.134,6.328,3.837l.011,0a9.266,9.266,0,0,0,1.843.483,13.039,13.039,0,0,0,2.061.157,16.807,16.807,0,0,0,6.133-1.19,12.4,12.4,0,0,0,2.61-1.409,7.553,7.553,0,0,0,1.882-1.881,34.612,34.612,0,0,0,2.557-5.778c.468-1.238.873-2.306,1.175-2.9l.179-2.5c.209-2.936.43-6.288.413-8.9-.018-2.9-.324-4.523-.935-4.947a14.678,14.678,0,0,0-5.789-2.077,41.454,41.454,0,0,0-7.051-.535c-2.644,0-4.964.177-6.445.326a19.547,19.547,0,0,0-2.9.417c-.211.139-.39.244-.547.336a2.42,2.42,0,0,0-1.016.909c-.419.056-.846.114-1.27.174-.282.092-.428.282-.392.509a.577.577,0,0,0,.233.358.836.836,0,0,0,.51.16,1.154,1.154,0,0,0,.409-.079Z" transform="translate(0.878)" fill="#fff"/>
      <path id="_Ink" data-name="ðŸ– Ink" d="M25.473,120.706a1.277,1.277,0,0,1-.59-.145l-.043-.023-.072-.041a1.431,1.431,0,0,1-.575-.669,1.185,1.185,0,0,1-.053-.875,19.665,19.665,0,0,0,.625-2.241c.154-.653.314-1.328.531-1.973l-.368.165-.485.211a47.966,47.966,0,0,1-6.092,2.232,23.415,23.415,0,0,1-6.362.96,16.6,16.6,0,0,1-4.335-.56,11.37,11.37,0,0,1-3.548-1.615,8.254,8.254,0,0,1-2.6-2.87,11.639,11.639,0,0,1-1.184-3.7,29.252,29.252,0,0,1-.3-3.893A60.966,60.966,0,0,1,.529,96.1a58.126,58.126,0,0,1,1.148-6.374,1.575,1.575,0,0,1-.522-1,18.593,18.593,0,0,1,.29-4.947v0c.055-.37.111-.753.161-1.125.276-2.067.561-3.971.871-5.821.675-4.027,1.45-7.953,2.3-11.67.776-3.384,1.7-6.82,2.735-10.214,1.015-3.319,2.17-6.684,3.432-10l.22-.574c1.305-3.394,2.56-6.3,3.835-8.88a61.667,61.667,0,0,1,4.9-8.331,37.593,37.593,0,0,1,2.824-3.591A21.528,21.528,0,0,1,26.1,20.5a29.239,29.239,0,0,1,7.787-3.881,42.285,42.285,0,0,1,4.189-1.188c1.373-.315,2.814-.576,4.284-.777.436-.059.882-.116,1.314-.171a26.783,26.783,0,0,0,7.436-1.673A1.276,1.276,0,0,1,51.03,11.8a1.562,1.562,0,0,1,.614-.832,43.707,43.707,0,0,0,4.832-3.916l.689-.613a.507.507,0,0,1,.339-.134.516.516,0,0,1,.434.247.478.478,0,0,1,0,.486,19.827,19.827,0,0,1-2.022,3.2c-.5.622-1.038,1.207-1.543,1.746a29.69,29.69,0,0,1,3.564,3.926l.067.084c.341.424.682.858,1.012,1.278a45.7,45.7,0,0,0,3.313,3.9,14.2,14.2,0,0,0,2.489,2.029,13.892,13.892,0,0,0,2.884,1.4l.421.146a16.719,16.719,0,0,1,3.1,1.389,6.818,6.818,0,0,1,2.416,2.325.434.434,0,0,1,0,.447.482.482,0,0,1-.406.249.422.422,0,0,1-.225-.066,15.717,15.717,0,0,0-4.226-1.608c-.818-.224-1.664-.455-2.474-.759A15.936,15.936,0,0,1,63.275,25.2a17.97,17.97,0,0,1-2.666-2.12,45.788,45.788,0,0,1-3.768-4.265l-.006-.007c-.24-.3-.488-.6-.734-.9a38.9,38.9,0,0,0-4.686-4.731,17.947,17.947,0,0,1-4.174,2.023c-1.408.49-2.867.863-4.491,1.265l-.332.082c-1.778.44-3.221.842-4.542,1.263a38.493,38.493,0,0,0-4.4,1.683,35.817,35.817,0,0,0-3.7,1.942,21.236,21.236,0,0,0-3.353,2.487,33.312,33.312,0,0,0-5.432,7.058,68.013,68.013,0,0,0-4.531,8.733c-1.159,2.652-2.284,5.572-3.538,9.19-1.109,3.2-2.146,6.484-3.082,9.767C8.906,61.922,8.052,65.26,7.3,68.588,6.554,71.863,5.931,75.21,5.392,78.82c-.244,1.634-.466,3.308-.659,4.974-.05.43-.091.87-.131,1.3v0A18.978,18.978,0,0,1,3.936,89.1a1.484,1.484,0,0,1-.521.769,1.254,1.254,0,0,1-.75.242l-.065,0-.112,1.4c-.143,1.8-.286,3.71-.334,5.615-.085,3.417-.025,6.479.182,9.359l.032.425a17.187,17.187,0,0,0,.566,3.478,6.753,6.753,0,0,0,1.717,3.021,7.63,7.63,0,0,0,3.212,1.785,13.626,13.626,0,0,0,3.674.514h.226a20,20,0,0,0,3.9-.406,28.887,28.887,0,0,0,3.814-1.058,75.587,75.587,0,0,0,7.291-3.114l.609-.285c2.491-1.167,5.016-2.43,7.5-3.754,2.423-1.289,4.883-2.674,7.311-4.117s4.871-2.957,7.27-4.509c1.165-.754,2.342-1.534,3.5-2.318.231-.157.461-.321.684-.48h0c.414-.3.842-.6,1.282-.862a1.084,1.084,0,0,1-.329-.564.852.852,0,0,1,.127-.651,6.651,6.651,0,0,1-1.257-1.49,9.371,9.371,0,0,1-.869-1.81,13.092,13.092,0,0,1-.733-3.863,32.058,32.058,0,0,1,.345-5.079V81.34c.032-.266.066-.541.1-.811.119-1.016.266-2.02.407-2.952.025-.163.046-.325.069-.5.031-.234.063-.476.1-.715-2.606,1.432-5.3,2.815-8.014,4.11-2.676,1.278-5.446,2.508-8.233,3.656-2.758,1.136-5.592,2.182-8.664,3.2l-.593.2c-1.679.55-2.976.947-4.2,1.288-1.55.43-2.949.756-4.275,1l-.026,0a.174.174,0,0,1-.162-.136.116.116,0,0,1,.074-.137c1.854-.818,3.782-1.563,5.646-2.284.944-.365,1.92-.742,2.874-1.124l.466-.19a.93.93,0,0,1-.167-.024c-1.177-.284-2.362-.682-3.509-1.067h0c-.47-.158-.957-.321-1.433-.473s-.979-.289-1.467-.421a16.173,16.173,0,0,1-3.163-1.1.1.1,0,0,1-.055-.113.129.129,0,0,1,.113-.1c.159-.011.326-.017.5-.017a17.467,17.467,0,0,1,3.309.439c.371.073.72.142,1.071.2l.586.1c.9.158,1.941.348,2.961.6A1.251,1.251,0,0,1,27,83.124c2.379-1.762,2.579-5.012,2.755-7.88v0c.036-.587.07-1.142.122-1.674l.227-2.343c.385-3.955.815-8.16,1.463-12.271a.156.156,0,0,1,.164-.136.2.2,0,0,1,.208.186c.023,3.457-.152,6.961-.321,10.35-.078,1.557-.158,3.168-.218,4.754l-.03.826,0,.13c-.1,3.067-.211,6.239-2.141,8.6a.8.8,0,0,1,.394-.11.6.6,0,0,1,.471.213,1.614,1.614,0,0,1,.425,1.046c1.7-.714,3.481-1.481,5.283-2.279,2.767-1.226,5.58-2.558,8.36-3.959,2.7-1.363,5.451-2.828,8.162-4.354a1.025,1.025,0,0,1,1.413.359l.041-.006.021,0,.041,0h0a1.623,1.623,0,0,1,.791-.193,2.487,2.487,0,0,1,1.643.68c.016.015.03.032.043.046l.01.011a8.713,8.713,0,0,0,2.284-1.5,18.343,18.343,0,0,0,1.981-2.128c.556-.692,1.113-1.464,1.7-2.36.482-.734.954-1.5,1.41-2.242.692-1.125,1.408-2.289,2.184-3.378a19.559,19.559,0,0,1,2.6-3.033,15.641,15.641,0,0,1,3.523-2.435,21.477,21.477,0,0,1,4-1.534.273.273,0,0,1,.075-.224.386.386,0,0,1,.265-.151.377.377,0,0,1,.162.044.066.066,0,0,1,.029.028l.27-.461c.2-.333.308-.514.351-.568.312-.392.636-.787.965-1.171a8.323,8.323,0,0,1,1.924-1.743,3.642,3.642,0,0,1,1.962-.543,9.855,9.855,0,0,1,2.963.646l.022.007c.651.212,1.31.433,1.949.646l.017.006,1.023.341.1.034.192.061a5.35,5.35,0,0,1,1.023.4,1.557,1.557,0,0,1,.82,1.724A33.619,33.619,0,0,1,98.4,54.6a43.225,43.225,0,0,1,6.872.57,50.1,50.1,0,0,1,6.633,1.551.833.833,0,0,1,.584.584,50.257,50.257,0,0,1,.821,6.128,39.978,39.978,0,0,1-.038,6.18,34.913,34.913,0,0,1-.848,5.254,28.4,28.4,0,0,1-1.73,5.029l-.084.183a22.025,22.025,0,0,1-2.746,4.612,10.934,10.934,0,0,1-1.913,1.887,7.026,7.026,0,0,1-2.317,1.174,9.943,9.943,0,0,1-2.725.323c-.8,0-1.609-.058-2.394-.114-.412-.029-.837-.06-1.249-.08-.454-.023-.918-.042-1.367-.06h0a40.784,40.784,0,0,1-4.715-.374,7.517,7.517,0,0,1-2.476-.827,6.276,6.276,0,0,1-1.966-1.7,12.251,12.251,0,0,1-1.859-4.261c-.216.069-.393.131-.557.195a6.127,6.127,0,0,0-2.022,1.364c-.566.549-1.084,1.16-1.584,1.752a19.746,19.746,0,0,1-1.948,2.089,14.953,14.953,0,0,1-3.986,2.488,26.116,26.116,0,0,1-3.795,1.271c-1.289.336-2.62.611-3.906.876l-.011,0c-.554.114-1.126.233-1.688.354l-.222.048c-1,.219-2.31.524-3.576.937a16.814,16.814,0,0,0-3.366,1.477,1.438,1.438,0,0,1-.476.937,1.2,1.2,0,0,1,.364.648,1.075,1.075,0,0,1-.161.775,9.572,9.572,0,0,1-3.2,2.752h0c-.231.146-.471.3-.7.449l-.092.061c-1.383.917-2.8,1.829-4.205,2.709-2.756,1.725-5.628,3.4-8.781,5.124-2.448,1.338-4.888,2.616-7.252,3.8-2.491,1.247-4.979,2.43-7.4,3.516a16.43,16.43,0,0,1,.246,2.453,20.124,20.124,0,0,0,.168,2.01l.034.211a1.435,1.435,0,0,1-.412,1.367l-.04.037v0l-.036.033-.012.01,0,0a1.276,1.276,0,0,1-.134.109l-.058.038A1.183,1.183,0,0,1,25.473,120.706Zm28.537-44c0,.122,0,.247,0,.357,0,.18,0,.349.006.518.02.767.03,1.584.03,2.43,0,.612-.012,1.235-.023,1.837-.021,1.066-.042,2.169,0,3.252a14.5,14.5,0,0,0,.251,2.263,7.679,7.679,0,0,0,.744,2.143,5.772,5.772,0,0,0,.916,1.263,8.625,8.625,0,0,0,1.15.992,18.694,18.694,0,0,1,3.277-1.56,31.6,31.6,0,0,1,3.507-1.048c.937-.228,1.9-.435,2.826-.635h0a52.9,52.9,0,0,0,5.792-1.478,15.237,15.237,0,0,0,3.826-1.864,16.012,16.012,0,0,0,2.944-2.886l.01-.012.23-.268.153-.177a10.381,10.381,0,0,1,3.51-2.871,10.79,10.79,0,0,1,1.517-.488,6.621,6.621,0,0,0,2.374-.974,2.12,2.12,0,0,0,.659-1.672l0-.038a3.27,3.27,0,0,1-.466.031,8.461,8.461,0,0,1-1.162-.109h0c-.15-.021-.305-.043-.455-.06l-.353-.041a14.314,14.314,0,0,1-1.905-.324.124.124,0,0,1,0-.238,15.856,15.856,0,0,1,2.165-.355l.092-.011.18-.022.266-.036h0a8.565,8.565,0,0,1,1.163-.108,3.055,3.055,0,0,1,.675.069,5.755,5.755,0,0,1,.546-1.353c.105-.189.237-.383.376-.588a3.638,3.638,0,0,0,.717-1.474,1.189,1.189,0,0,0-.127-.667l-.035-.066a.555.555,0,0,0-.169-.2.144.144,0,0,1-.064.033,1.029,1.029,0,0,1-1.224-.487,19.372,19.372,0,0,1-2.1.1c-.358,0-.7.009-1.023.024l-.977.047c-.321.015-.745.032-1.168.032a9.192,9.192,0,0,1-1.948-.174.172.172,0,0,1-.125-.158.149.149,0,0,1,.084-.158,14.089,14.089,0,0,1,3.441-.8l.518-.077c.48-.074.97-.137,1.444-.2l.012,0c.234-.03.477-.061.715-.093.154-.021.315-.046.47-.071h0a9.707,9.707,0,0,1,1.02-.126,2.887,2.887,0,0,0,.594-1.313,3.218,3.218,0,0,0-.064-1.4,3.136,3.136,0,0,0-.614-1.192,2.634,2.634,0,0,0-1.08-.782,1.918,1.918,0,0,1-.8.158,5.705,5.705,0,0,1-.682-.056h0c-.134-.016-.272-.033-.414-.045-.77-.066-1.407-.1-2.006-.1h-.073a17.221,17.221,0,0,0-1.724.126,16.987,16.987,0,0,1-1.78.128,6.46,6.46,0,0,1-.739-.039.367.367,0,0,1-.294-.249.233.233,0,0,1,.085-.257,5.2,5.2,0,0,1,1.846-.916,14.02,14.02,0,0,1,2.059-.408l.277-.037.377-.051c.361-.05.768-.107,1.184-.144a.889.889,0,0,1,.7-.485c.093-.013.187-.021.278-.029l.031,0,0-.01a.621.621,0,0,0,.517-.312,2.2,2.2,0,0,0,.057-1.7,1.93,1.93,0,0,0-1.255-1.046A5.756,5.756,0,0,0,83,57.732c-.264,0-.538.01-.86.032a25.648,25.648,0,0,0-4.639.741,20.31,20.31,0,0,0-4.388,1.652A13.577,13.577,0,0,0,69.5,62.951,25.382,25.382,0,0,0,66.73,66.6l-.079.122c-.271.422-.547.866-.814,1.3l0,0c-.689,1.11-1.4,2.258-2.208,3.308a12.338,12.338,0,0,1-2.786,2.74A13.106,13.106,0,0,1,56.4,76.134a.814.814,0,0,1-.519.4l-.108.025a6.759,6.759,0,0,1-1.373.165A3.656,3.656,0,0,1,54.01,76.7ZM28.442,85.6a.689.689,0,0,1-.049.066l-.027.031.138-.056ZM94.718,55.688c-1.557,0-3.143.042-4.633.085a2.526,2.526,0,0,1-.863,1.213,2.373,2.373,0,0,1-1.368.538,4.011,4.011,0,0,1,.63,1.924,4.238,4.238,0,0,1-.328,1.976,5.268,5.268,0,0,1,1.532.931A4.9,4.9,0,0,1,90.819,63.8a5.068,5.068,0,0,1,.439,1.209,4.942,4.942,0,0,1,.117,1.231,5.249,5.249,0,0,1-.652,2.35,3.18,3.18,0,0,1,.795,1.162,3.4,3.4,0,0,1,.252,1.409,5.425,5.425,0,0,1-1.012,2.526c-.062.1-.125.205-.186.307A5.518,5.518,0,0,0,89.9,76.26c-.026.185-.053.376-.086.574a3.623,3.623,0,0,1-.913,1.9,5.079,5.079,0,0,1-1.731,1.177l.071.281a14.255,14.255,0,0,0,.643,2.017,5.361,5.361,0,0,0,1.126,1.745c1.18,1.176,2.975,1.253,4.558,1.322l.379.017.081,0c1.257.063,2.534.136,3.769.206h.012l.845.048,1.157.065c.363.02.79.04,1.211.04a7.559,7.559,0,0,0,1.941-.213,4.624,4.624,0,0,0,1.777-.891,13.608,13.608,0,0,0,3.01-3.613,25.142,25.142,0,0,0,2.005-4.281,28.758,28.758,0,0,0,1.234-4.512,33.909,33.909,0,0,0,.54-4.643,41.119,41.119,0,0,0-.049-4.689c-.1-1.5-.279-3.065-.534-4.65a51.274,51.274,0,0,0-10.224-2.194A55.505,55.505,0,0,0,94.718,55.688Zm-11.794-.307a8.626,8.626,0,0,1,2.107.236,5.079,5.079,0,0,1,1.832.853l.006-.011.01-.017a4.62,4.62,0,0,1,.582-.682l.007-.007.061-.06.117-.125-.268-.093c-.409-.145-.868-.318-1.142-.421l-.221-.083-.007,0-.374-.127h0c-.6-.2-1.216-.411-1.821-.625-.108-.038-.214-.078-.327-.121a4.4,4.4,0,0,0-1.5-.373,1.869,1.869,0,0,0-.3.023,3.548,3.548,0,0,0-1.41.622,13.821,13.821,0,0,0-1.288,1.042h0c-.225.2-.437.384-.648.554l.5-.1A22.072,22.072,0,0,1,82.924,55.381ZM116.4,120.54a.532.532,0,0,1-.331-.114.484.484,0,0,1-.18-.337l-.079-.76a12.88,12.88,0,0,0-.544-2.839,15.661,15.661,0,0,1-.693-3.358c-.2-1.8-.294-3.641-.369-5.375l-.053-1.241c-.168-3.878-.239-7.667-.213-11.263.029-3.861.172-7.648.425-11.257l.038-.535c.159-2.168.315-3.828.5-5.383.243-1.991.537-3.756.9-5.395a29.607,29.607,0,0,1,4.007-10.018.131.131,0,0,1,.111-.062.137.137,0,0,1,.107.051.128.128,0,0,1,.022.112c-.911,3.732-1.836,7.742-2.429,11.78-.233,1.587-.411,3.211-.546,4.966-.119,1.563-.2,3.194-.248,4.986-.088,3.329-.044,6.716,0,9.993v.032c.007.553.015,1.125.021,1.687l0,.374c.039,3.457.1,7.547.234,11.674.016.474.035.958.054,1.426.06,1.475.122,3,.069,4.492a13.334,13.334,0,0,1-.227,1.794c-.075.435-.153.885-.2,1.337a15.58,15.58,0,0,0,.01,2.309c.008.147.017.312.024.473a.426.426,0,0,1-.107.324A.435.435,0,0,1,116.4,120.54Zm19.387-.325a1.566,1.566,0,0,1-1.132-.462,1.124,1.124,0,0,1-.3-.863,116.951,116.951,0,0,0,.291-12.957c-.195-4.279-.6-8.634-1.209-12.944-.378-2.679-.9-5.377-1.408-7.986-.177-.91-.36-1.852-.535-2.785l-.105-.566c-.526-2.848-1.076-5.741-1.608-8.538v-.005l-.114-.6-.866-4.563c-1.183-6.227-2.574-13.456-4.116-20.459l-.089-.4a63.192,63.192,0,0,0-2.907-9.785,37.032,37.032,0,0,0-2.2-4.606,27.92,27.92,0,0,0-2.9-4.17,23.443,23.443,0,0,0-1.756-1.856c-.594-.564-1.237-1.116-1.912-1.641a33.064,33.064,0,0,0-4.195-2.755c-1.316-.738-2.8-1.473-4.527-2.248-1.587-.711-3.222-1.385-4.665-1.979a.227.227,0,0,1-.143-.257.193.193,0,0,1,.194-.163.269.269,0,0,1,.062.008l.5.119a53.3,53.3,0,0,1,10.695,3.466,23.041,23.041,0,0,1,4.737,3.028,24.981,24.981,0,0,1,3.9,4.054,34.386,34.386,0,0,1,5.035,9.542,79.391,79.391,0,0,1,2.777,10.48c.779,3.756,1.537,7.582,2.271,11.282.8,4.058,1.636,8.255,2.5,12.374l.306,1.467c.916,4.4,1.59,7.8,2.186,11.014.745,4.013,1.346,7.637,1.838,11.079l.076.538a114.115,114.115,0,0,1,1.112,11.581c.077,2.02.075,3.979-.008,5.82a54.829,54.829,0,0,1-.558,5.776,1.076,1.076,0,0,1-.432.732A1.329,1.329,0,0,1,135.783,120.215Zm-52.9-6.444a.835.835,0,0,1-.8-.571,9.67,9.67,0,0,1-.377-2.838c0-.979.08-1.965.163-2.918v0c.024-.28.047-.544.068-.81L82.065,105c.113-1.467.241-3.2.341-4.909.132-2.264.242-4.57.341-6.725.032-.693.067-1.407.108-2.184l.059-1.092c.007-.12.012-.243.018-.362a6.6,6.6,0,0,1,.407-2.4.3.3,0,0,1,.285-.169.353.353,0,0,1,.312.169,6.645,6.645,0,0,1,.562,2.556v0c.008.091.016.185.024.276l.009.1c.131,1.382.212,2.446.263,3.449.112,2.187.165,4.392.158,6.552-.008,2.512-.065,4.709-.173,6.717l-.033.6a25.975,25.975,0,0,1-.3,3,9.164,9.164,0,0,1-.915,2.815A.715.715,0,0,1,82.884,113.771ZM7.123,98.2a.093.093,0,0,1-.028,0,.823.823,0,0,1-.539-.425,1.387,1.387,0,0,1,.122-1.1,15.171,15.171,0,0,1,2.078-3.15l.014-.017L9,93.21a28.988,28.988,0,0,1,2.683-2.984l.282-.273c.109-.107.22-.219.338-.338a10.679,10.679,0,0,1,1.285-1.165,2.587,2.587,0,0,1,1.5-.573c.038,0,.076,0,.114,0a.769.769,0,0,1,.73.958,3.388,3.388,0,0,1-1.56,1.864c-.194.144-.377.28-.55.423-.867.721-1.673,1.481-2.491,2.26-.7.668-1.385,1.363-2.091,2.122l-.253.274c-.043.047-.134.136-.249.249l0,0c-.547.535-1.686,1.649-1.532,1.982l.01.018a.1.1,0,0,1,0,.1A.112.112,0,0,1,7.123,98.2ZM73.832,76.481a1.585,1.585,0,0,1-1.112-.472,2.52,2.52,0,0,1-.646-1.13,4.675,4.675,0,0,1-.1-1.319,3.786,3.786,0,0,0-.171-1.514,4.349,4.349,0,0,0-.384-.678,4.556,4.556,0,0,1-.378-.661,4.363,4.363,0,0,1-.337-1.472,3.765,3.765,0,0,1,.229-1.247,2.326,2.326,0,0,0,.087-1.756.364.364,0,0,1,.016-.347.263.263,0,0,1,.23-.139h.007l.026,0a1.5,1.5,0,0,1,.911.456,2.032,2.032,0,0,1,.5.918,8.393,8.393,0,0,1,.172.985,4,4,0,0,0,.584,1.872,5.446,5.446,0,0,1,1.129,2.869c.012.148.018.3.025.443v0a5.517,5.517,0,0,0,.1.984l.078.329a3.086,3.086,0,0,1,.109,1.067.786.786,0,0,1-.55.722A1.725,1.725,0,0,1,73.832,76.481ZM40.466,59.206a13.04,13.04,0,0,1-2.02-.141A.167.167,0,0,1,38.3,58.9a.228.228,0,0,1,.146-.234,23.238,23.238,0,0,1,4.07-.709c.312-.036.633-.072.948-.111,1.457-.181,3.373-.426,5.275-.723s3.613-.588,5.243-.892c.783-.146,1.576-.3,2.359-.459.167-.034.334-.076.512-.121a5.092,5.092,0,0,1,1.218-.207,1.738,1.738,0,0,1,.646.113.653.653,0,0,1,.406.46.526.526,0,0,1-.155.489,2.994,2.994,0,0,1-1.777.673c-.123.019-.251.038-.374.06l-.067.012c-.889.165-1.8.324-2.709.475-1.731.287-3.453.537-5.118.743-1.97.244-3.7.426-5.286.557l-.683.056C42.158,59.147,41.308,59.206,40.466,59.206Zm42.551-8.134a.616.616,0,0,1-.537-.308A14.257,14.257,0,0,1,81.1,47.016c-.171-.644-.348-1.31-.566-1.944-.284-.828-.592-1.663-.89-2.47h0c-.367-.993-.746-2.02-1.083-3.042a22.947,22.947,0,0,1-.918-3.686A14.19,14.19,0,0,1,77.53,32.1l-.008-.013a.313.313,0,0,1-.017-.031l-.2-.439a9.538,9.538,0,0,0-2.071-3.174c-.253-.241-.515-.478-.768-.708a13.725,13.725,0,0,1-2.213-2.352,5.444,5.444,0,0,1-.728-1.518,6.384,6.384,0,0,1-.257-1.567,17.017,17.017,0,0,1,.272-3.227c.1-.663.2-1.347.25-2.019l.024-.348a2.524,2.524,0,0,0-.325-1.8,3.143,3.143,0,0,0-1.443-.616c-.215-.055-.417-.106-.583-.165a32.4,32.4,0,0,1-4.346-1.875,27.587,27.587,0,0,1-3.812-2.381L60.7,9.41a10.7,10.7,0,0,1-2.593-2.5.156.156,0,0,1,0-.161.161.161,0,0,1,.136-.091.131.131,0,0,1,.049.01A15.31,15.31,0,0,1,60.6,7.94h0c.244.153.5.311.745.46A1.223,1.223,0,0,1,61.4,8.29a12.719,12.719,0,0,0,1.316-3.528A13.234,13.234,0,0,0,62.952,1,.9.9,0,0,1,63.17.3a1.009,1.009,0,0,1,.745-.3,1.187,1.187,0,0,1,.74.251A1.038,1.038,0,0,1,65.042,1,14.839,14.839,0,0,1,63.2,9.345c-.007.012-.014.024-.021.035l-.011.018c1.025.533,1.877.944,2.684,1.292,1.252.541,2.417.982,3.562,1.35.309.1.632.18.973.266a6.174,6.174,0,0,1,2.387.957,3.129,3.129,0,0,1,.965,1.329,5.052,5.052,0,0,1,.315,1.662,16.235,16.235,0,0,1-.373,3.454c-.023.125-.047.255-.069.379l-.058.328a5.468,5.468,0,0,0,.131,3.19,7.766,7.766,0,0,0,2.1,2.5l.009.008.208.187.175.159a11.6,11.6,0,0,1,2.211,2.5,15.144,15.144,0,0,1,1.7-2.58l0,0,.251-.33c.428-.565.261-.828-.016-1.264-.065-.1-.139-.218-.211-.348a3.728,3.728,0,0,1-.4-1.019,2.985,2.985,0,0,1-.035-1.088,3.252,3.252,0,0,1,.312-.968,4.215,4.215,0,0,1,.563-.837,7.7,7.7,0,0,1,1.543-1.33A27.279,27.279,0,0,1,84.478,17.8c.574-.312,1.167-.634,1.733-.981a55.942,55.942,0,0,0,7.877-5.785.082.082,0,0,1,.055-.021.092.092,0,0,1,.08.046.07.07,0,0,1-.005.075A30.706,30.706,0,0,1,87.3,18.7c-.955.739-1.972,1.385-2.957,2.009l-.521.331-.34.218A3.183,3.183,0,0,0,82.2,22.5c-.165.4.067.733.291,1.054.07.1.142.2.2.308a3.243,3.243,0,0,1,.381,1.022,2.793,2.793,0,0,1,0,.985,4.2,4.2,0,0,1-.909,1.848l-.043.054a8.748,8.748,0,0,0-1.968,3.669,11.537,11.537,0,0,0,0,4.749,30.222,30.222,0,0,0,1.335,4.605l.042.116c.138.385.281.777.419,1.155l0,0c.431,1.179.876,2.4,1.25,3.619l.136.446a7.229,7.229,0,0,1,.313,4.476A.67.67,0,0,1,83.017,51.072ZM88.632,29.8c-.138,0-.278-.005-.417-.015a5.625,5.625,0,0,1-2.36-.677,5.206,5.206,0,0,1-.832-.664,2.864,2.864,0,0,0-1.688-.98,1.1,1.1,0,0,0-.34.055.1.1,0,0,1-.03,0,.126.126,0,0,1-.111-.086.1.1,0,0,1,.029-.111,1.413,1.413,0,0,1,.915-.334,3.991,3.991,0,0,1,1.833.709,6.006,6.006,0,0,0,1.128.558,4.394,4.394,0,0,0,4.828-1.522,49,49,0,0,0,3.355-4.9,23.746,23.746,0,0,0,1.4-2.622,8.946,8.946,0,0,0,.5-1.6,11.581,11.581,0,0,1,.349-1.235,1.2,1.2,0,0,1,.494-.608,1.369,1.369,0,0,1,.718-.2,1.128,1.128,0,0,1,.823.327,1.04,1.04,0,0,1,.261.8,8.2,8.2,0,0,1-.821,2.754l-.108.25-.044.1a19.267,19.267,0,0,1-1.515,2.887,36.687,36.687,0,0,1-3.872,4.967,6.891,6.891,0,0,1-2.03,1.559A5.518,5.518,0,0,1,88.632,29.8Zm10.21-14.928a1.067,1.067,0,0,1-.736-.325,20.8,20.8,0,0,1-2.237-2.467,10.13,10.13,0,0,1-1.6-2.9.177.177,0,0,1,.028-.162.213.213,0,0,1,.168-.089.169.169,0,0,1,.094.028A14.48,14.48,0,0,1,96.133,10.2h0c.236.206.48.418.725.618.848.693,1.708,1.376,2.554,2.028a1.208,1.208,0,0,1,.443.614,1.054,1.054,0,0,1-.017.64A1.1,1.1,0,0,1,98.841,14.871ZM92.922,11.46a1.085,1.085,0,0,1-.682-.247,7.253,7.253,0,0,1-2.369-3.483,7.673,7.673,0,0,1-.358-2.09,7.532,7.532,0,0,1,.236-2.126A.939.939,0,0,1,90.7,2.77a1.173,1.173,0,0,1,.9.42.958.958,0,0,1,.178.84l-.009.039a5.339,5.339,0,0,0,.119,3.086,5.676,5.676,0,0,0,1.774,2.53l.061.05a.927.927,0,0,1,.33.467.806.806,0,0,1-.02.49A1.213,1.213,0,0,1,92.922,11.46Z" transform="translate(0 4.038)" fill="#212121"/>
    </g>
    <g id="Group_1" data-name="Group 1" transform="translate(-5357.787 3481.148)">
      <g id="head_Short_2" data-name="head/Short 2" transform="translate(0 0)">
        <path id="_Background-2" data-name="ðŸŽ¨ Background" d="M62.375,17.438c2-1.435-.981-6.155-1.993-7.56l-2.641-5.5A2.277,2.277,0,0,0,54.931,2a2.812,2.812,0,0,0-4.016.945C36.966-3.132,12.831-.6,11.582,18.142c-2.7,5.337-5.373,10.721-7.767,16.2-3.322.178-4.932,4.214-2.954,6.821.263,4.235,2.948,4.57,6.532,4.381,1.439.379,2.931.584,4.011,1.7a12.028,12.028,0,0,1,1.916,2.933,35.881,35.881,0,0,0,9.916,12.168c6.651,4.978,15.655,8.552,23.949,6.128,17.831-7,21.333-34.986,15.19-51.034Z" transform="translate(0.878 10.71)" fill="#fff"/>
        <path id="_Ink-2" data-name="ðŸ– Ink" d="M44.28,80.168c-.477,0-.962-.017-1.44-.051a29.91,29.91,0,0,1-5.09-.8l-.4-.1a13.883,13.883,0,0,1-4.393-1.691,1.441,1.441,0,0,1-.578-.7,1.219,1.219,0,0,1-.016-.775,1.4,1.4,0,0,1,.5-.7,1.467,1.467,0,0,1,.89-.292,1.678,1.678,0,0,1,.243.018,20.145,20.145,0,0,1,2.977.76c.726.225,1.477.458,2.228.622.785.172,1.564.3,2.317.391a20.372,20.372,0,0,0,2.343.139c.183,0,.368,0,.549-.008a15.668,15.668,0,0,0,4.458-.771A16.46,16.46,0,0,0,52.918,74.2a20.123,20.123,0,0,0,3.3-2.784,21.614,21.614,0,0,0,2.576-3.3,25.925,25.925,0,0,0,1.947-3.716,33.262,33.262,0,0,0,1.409-4.019,50.514,50.514,0,0,0,1.561-8.512c.334-3.177.439-6.327.488-8.42.071-2.981.025-5.572-.139-7.92a48.705,48.705,0,0,0-1.141-7.829A45.506,45.506,0,0,0,60.541,20.4a40.385,40.385,0,0,0-3.628-6.752,7.472,7.472,0,0,1-1.915.49,4.988,4.988,0,0,1-1.915.633,14.836,14.836,0,0,1-2.054.1h-.191c-1.3,0-2.7-.072-4.275-.214-1.339-.119-2.714-.289-4.043-.454a63.082,63.082,0,0,0-7.69-.636,24.749,24.749,0,0,0-3.519.234l-.206.03c-2.876.433-4.958,1.263-6.186,2.467a3.011,3.011,0,0,0-.82,2.411,5.019,5.019,0,0,0,.531,1.893,3.817,3.817,0,0,0,1.051,1.339,1.829,1.829,0,0,1,.731,1.55,1.276,1.276,0,0,1-.2.6,1.364,1.364,0,0,1-.529.465c-1.245.643-3.5.717-5.317.776-1.4.046-2.5.082-2.761.351a3.7,3.7,0,0,0-.681,2.6h0c0,.084,0,.17,0,.254V28.6a74.64,74.64,0,0,0,.228,8.264c.094,1.113.24,2.245.382,3.34h0c.2,1.525.4,3.1.468,4.656a.822.822,0,0,1-.219.622.974.974,0,0,1-.706.28,1.063,1.063,0,0,1-.68-.238c-.116-.1-.234-.186-.35-.265A8.108,8.108,0,0,0,12.5,43.994a.259.259,0,0,1-.158-.089l-.015-.02L12.187,44a4.854,4.854,0,0,1,.676,1.129.115.115,0,0,1-.009.108.089.089,0,0,1-.074.043.1.1,0,0,1-.052-.016A8.231,8.231,0,0,0,8.5,44.021a7.532,7.532,0,0,0-1.538.161,5.966,5.966,0,0,0-2.515,1.155,4.731,4.731,0,0,0-.936,1,4.373,4.373,0,0,0-.6,1.271,5.8,5.8,0,0,0-.113,2.677,5.677,5.677,0,0,0,1.1,2.448A4.4,4.4,0,0,0,5.126,53.82a5.342,5.342,0,0,0,1.453.58,15.144,15.144,0,0,0,3.22.313c.27.007.549.015.819.025a1.413,1.413,0,0,1,1.215.7,1.439,1.439,0,0,1,0,1.42.879.879,0,0,1-.128.205c.176.145.356.312.583.54l.627.632c.383.387.834.846,1.267,1.318A53.118,53.118,0,0,1,17.6,63.7l.1.134c.222.3.442.627.675.968,1.06,1.554,2.261,3.315,4.047,3.76a2.01,2.01,0,0,1,1.657,1.359,1.482,1.482,0,0,1-.155,1.138,1.941,1.941,0,0,1-.846.786,2.3,2.3,0,0,1-1,.218,3.828,3.828,0,0,1-1.467-.329A6.368,6.368,0,0,1,19.315,71a12.075,12.075,0,0,1-2.6-2.752c-.75-1.047-1.4-2.174-2.03-3.263l0-.005-.265-.457-.364-.625c-.654-1.129-1.34-2.349-1.922-3.614-.107-.234-.219-.471-.327-.7-.22-.466-.447-.947-.649-1.428-.094-.224-.177-.427-.244-.639a1.894,1.894,0,0,1-.288.04c-.392.026-.783.039-1.162.039a13.008,13.008,0,0,1-3.874-.538,7.6,7.6,0,0,1-3.295-1.971,7.909,7.909,0,0,1-1.029-1.349A8.58,8.58,0,0,1,.525,52.2a8.83,8.83,0,0,1-.517-3.351A7.67,7.67,0,0,1,.641,46.07a6.683,6.683,0,0,1,1.7-2.334,6.329,6.329,0,0,1,1.157-.8A12.729,12.729,0,0,1,2.238,39.71,25.757,25.757,0,0,1,1.471,34.9a29.389,29.389,0,0,1,.089-4.993,35.328,35.328,0,0,1,.862-4.922A34.472,34.472,0,0,1,5.665,16.68a33.48,33.48,0,0,1,5.2-7.1,31.515,31.515,0,0,1,6.886-5.422A30.011,30.011,0,0,1,26.041.877,34.224,34.224,0,0,1,33.773,0a35.6,35.6,0,0,1,6.983.695,35.184,35.184,0,0,1,6.7,2.053A33.324,33.324,0,0,1,53.59,6.114a31,31,0,0,1,5.273,4.633,1.472,1.472,0,0,1,.4,1.025,1.429,1.429,0,0,1-.4.952c.178.145.356.295.528.44l.022.018.144.121a.5.5,0,0,1,.168.367.631.631,0,0,1-.168.46.639.639,0,0,1-.439.17.478.478,0,0,1-.388-.17l-.289-.363c-.128-.162-.279-.354-.423-.55-.123.045-.244.093-.362.138l-.132.051A18.73,18.73,0,0,1,60.9,16.262a17.435,17.435,0,0,1,2.574,3.592,32.141,32.141,0,0,1,3.136,9.023A60.442,60.442,0,0,1,67.661,37.4c.146,2.562.176,5.373.091,8.593l-.008.306c-.055,1.929-.141,3.624-.263,5.18-.146,1.859-.345,3.544-.607,5.15a38.291,38.291,0,0,1-2.9,9.914,26.43,26.43,0,0,1-2.077,3.7A25.673,25.673,0,0,1,59.207,73.6a22.87,22.87,0,0,1-3.222,2.822,19.494,19.494,0,0,1-3.687,2.1,20.33,20.33,0,0,1-8.018,1.648ZM12.318,51.148a1.268,1.268,0,0,1-.595-.161l-.05-.027a18.935,18.935,0,0,0-1.889-.9c-.3-.129-.6-.262-.9-.4l-.2-.093c-.1-.047-.223-.114-.37-.193A5.623,5.623,0,0,0,6.1,48.551a.864.864,0,0,0-.562.174.941.941,0,0,0-.3.609.088.088,0,0,1-.094.07.091.091,0,0,1-.1-.07,1.4,1.4,0,0,1,.228-1.183,1.414,1.414,0,0,1,.7-.421A3.674,3.674,0,0,1,7,47.606a19.024,19.024,0,0,1,4.37.8c.534.141.956.253,1.217.295l.043.006a.991.991,0,0,1,.875,1.137,1.6,1.6,0,0,1-.354.893A1.077,1.077,0,0,1,12.318,51.148Z" transform="translate(0)" fill="#212121"/>
      </g>
    </g>
    <g id="Group_5" data-name="Group 5" transform="translate(-5331.012 3510.646) rotate(-3)">
      <g id="face_Explaining" data-name="face/Explaining" transform="translate(0 0)">
        <path id="_Ink-3" data-name="ðŸ– Ink" d="M19.173,22.514h0a6.13,6.13,0,0,1-2.186-.441,11.039,11.039,0,0,1-2.57-1.458.988.988,0,0,1-.359-.57,1.182,1.182,0,0,1,.051-.641,1.457,1.457,0,0,1,.433-.625,1.053,1.053,0,0,1,.674-.263.957.957,0,0,1,.522.16l.176.136c.893.691,2.243,1.734,3.538,1.734a2.112,2.112,0,0,0,1.574-.7,2.455,2.455,0,0,0,.486-1.306l-.033.018-.027.016-.022.012v-.045l.064-.023.02-.007c0,.007,0,.014,0,.02v.008l.031-.017.021-.013c.012-.008.018-.013.017-.015h0a.31.31,0,0,0-.064.017c.051-1.359-1.21-2.621-2.407-3.348a.441.441,0,0,1-.119-.507.656.656,0,0,1,.639-.454.894.894,0,0,1,.151.013,4.768,4.768,0,0,1,1.677.606,3.8,3.8,0,0,1,1.128,1.04,4.131,4.131,0,0,1,.72,2.76,4.407,4.407,0,0,1-1.2,2.693A3.972,3.972,0,0,1,19.173,22.514ZM6.764,14.842a1.506,1.506,0,0,1-.978-.378,3,3,0,0,1-.706-.918A5.218,5.218,0,0,1,4.5,11.4v-.04A5.9,5.9,0,0,1,5.027,9.1,2.089,2.089,0,0,1,6.764,7.683c.468,0,.883.378,1.2,1.094a7.3,7.3,0,0,1,.524,2.439l0,.073a4.949,4.949,0,0,1-.835,3.157A1.2,1.2,0,0,1,6.764,14.842Zm19.2-.351a1.205,1.205,0,0,1-.9-.4,3.378,3.378,0,0,1-.7-1.592,6.787,6.787,0,0,1-.123-1.629l.009-.134a7.087,7.087,0,0,1,.537-2.354c.314-.684.721-1.045,1.178-1.045A2.088,2.088,0,0,1,27.7,8.75a5.9,5.9,0,0,1,.53,2.258v.04a5.218,5.218,0,0,1-.582,2.147,3,3,0,0,1-.706.918A1.506,1.506,0,0,1,25.962,14.491ZM.988,7.609H.978a.862.862,0,0,1-.665-.325,2.213,2.213,0,0,1-.27-1.636A7.027,7.027,0,0,1,.684,3.722,7.752,7.752,0,0,1,1.823,2.041,6.245,6.245,0,0,1,3.446.727,5.819,5.819,0,0,1,5.418.05,4.5,4.5,0,0,1,6.091,0,4.147,4.147,0,0,1,7.84.364a2.463,2.463,0,0,1,1.248,1.2.948.948,0,0,1-.028.888.848.848,0,0,1-.711.4c-.176.008-.367.013-.582.013-.195,0-.387,0-.572-.006H7.188c-.183,0-.371-.006-.554-.006a4.443,4.443,0,0,0-2.9.792A7.293,7.293,0,0,0,2.129,5.4l-.168.245-.139.2A2.349,2.349,0,0,0,1.28,7.306a.267.267,0,0,1-.076.2A.3.3,0,0,1,.988,7.609Zm29.551-1.2a1.088,1.088,0,0,1-.614-.177,3,3,0,0,1-.895-1.086,5.074,5.074,0,0,0-.488-.732,5.237,5.237,0,0,0-3.315-1.7l-.1-.01c-.072-.006-.181-.01-.3-.01a5.723,5.723,0,0,0-.951.075,1.122,1.122,0,0,0-.728.325.3.3,0,0,0-.023.3.12.12,0,0,1-.013.115.173.173,0,0,1-.138.071.127.127,0,0,1-.1-.042.816.816,0,0,1-.219-.679,1.919,1.919,0,0,1,.881-1.185A5.02,5.02,0,0,1,26.223.935c.147,0,.3.006.441.018a7.222,7.222,0,0,1,2.423.7,6,6,0,0,1,2.131,1.627,2.693,2.693,0,0,1,.593,2.18A1.279,1.279,0,0,1,30.539,6.407Z" transform="translate(0)"/>
      </g>
      <path id="Fill_6" data-name="Fill 6" d="M9.245,10.6h0a11.03,11.03,0,0,1-2.93-.375A7.954,7.954,0,0,1,3.708,8.986,8.817,8.817,0,0,1,.89,5.378,10.021,10.021,0,0,1,.177,3C.164,2.923.15,2.844.135,2.759A3.8,3.8,0,0,1,.107.913,1.08,1.08,0,0,1,.837.228,3.7,3.7,0,0,1,1.881.12l.175,0L2.923.1C3.661.083,4.423.067,5.172.058,6.785.04,8.424.035,10.01.03h0L11.717.025c.42,0,.878-.006,1.362-.01C13.872.008,14.77,0,15.646,0c1.592,0,2.761.025,3.679.079a.893.893,0,0,1,.708.533,2.273,2.273,0,0,1,.271.824,6.933,6.933,0,0,1-1.648,5.182A9.7,9.7,0,0,1,16.585,8.5a10.829,10.829,0,0,1-2.5,1.259,15.2,15.2,0,0,1-2.345.615A14.226,14.226,0,0,1,9.245,10.6ZM3.527,1.387A1.789,1.789,0,0,0,3.67,2.5a1.522,1.522,0,0,0,.668.839,36.177,36.177,0,0,0,5.691.322c.665,0,1.26-.012,1.767-.035a23.653,23.653,0,0,0,3.817-.659,17.936,17.936,0,0,0,1.759-.511c.484-.176.74-.325.74-.432,0-.423-.177-.853-.351-.853h-.01c-.678.073-5.993.132-9.874.174h0c-1.708.019-3.056.034-3.568.045l-.216,0C3.9,1.4,3.708,1.392,3.527,1.387Z" transform="translate(6.255 28.509)"/>
    </g>
  </g>
</svg>
