<svg xmlns="http://www.w3.org/2000/svg" width="27" height="32" viewBox="0 0 27 32">
  <g id="Group_20" data-name="Group 20" transform="translate(-184 -22)">
    <g id="Union_1" data-name="Union 1" transform="translate(190 29)" fill="none">
      <path d="M0,9.958a9.958,9.958,0,1,1,9.958,9.957A9.958,9.958,0,0,1,0,9.958Z" stroke="none"/>
      <path d="M 9.958100318908691 16.91550064086914 C 13.79442024230957 16.91550064086914 16.91550064086914 13.79442024230957 16.91550064086914 9.958100318908691 C 16.91550064086914 6.121390342712402 13.79442024230957 3.000000238418579 9.958100318908691 3.000000238418579 C 6.121390342712402 3.000000238418579 3.000000238418579 6.121390342712402 3.000000238418579 9.958100318908691 C 3.000000238418579 13.79442024230957 6.121390342712402 16.91550064086914 9.958100318908691 16.91550064086914 M 9.958100318908691 19.91550064086914 C 4.458250522613525 19.91550064086914 3.204345659924002e-07 15.45725059509277 3.204345659924002e-07 9.958100318908691 C 3.204345659924002e-07 4.458250522613525 4.458250522613525 3.204345659924002e-07 9.958100318908691 3.204345659924002e-07 C 15.45725059509277 3.204345659924002e-07 19.91550064086914 4.458250522613525 19.91550064086914 9.958100318908691 C 19.91550064086914 15.45725059509277 15.45725059509277 19.91550064086914 9.958100318908691 19.91550064086914 Z" stroke="none" fill="#212121"/>
    </g>
    <circle id="Ellipse_4" data-name="Ellipse 4" cx="2" cy="2" r="2" transform="translate(184 31)" fill="#212121"/>
    <circle id="Ellipse_7" data-name="Ellipse 7" cx="2" cy="2" r="2" transform="translate(207 50)" fill="#212121"/>
    <circle id="Ellipse_5" data-name="Ellipse 5" cx="2" cy="2" r="2" transform="translate(195 22)" fill="#212121"/>
  </g>
</svg>
