<svg xmlns="http://www.w3.org/2000/svg" width="131.366" height="199.381" viewBox="0 0 131.366 199.381">
  <g id="Group_11" data-name="Group 11" transform="translate(1291.677 -3509.398)">
    <g id="Group_10" data-name="Group 10" transform="translate(-1292 3508)">
      <g id="body_Hoodie" data-name="body/Hoodie" transform="translate(0.323 76.533)">
        <path id="_Background" data-name="ðŸŽ¨ Background" d="M125.744,121.028c3.123-.151,1.867-5.609,1.643-7.614-2.472-7.322-1.891-15.31-2.863-22.984-.606-7.164-1.384-14.306-2.039-21.464C121.2,54.434,111.965,24.853,101.428,20.1c-1.327-5.82-6.81-11.253-13.746-11.253C82.951,3.245,77.257-.693,69.953.1c-3.018.137-5.945,3.336-8.837,3.954C59.5,4.279,45.126,3.7,42.248,5.413c-2.005,1.029-3.815,2.93-3.226,5.351.941,2.933-1.983-.241-8.081,2.889-12.435,7.464-5,17.448-4.675,17.758C18.506,42.2,11.723,50.955,8.585,64.143c-2.034,9.791-1.8,19.9-3.509,29.741a87.08,87.08,0,0,1-2.524,10.022C1.47,108.243.943,119.052.346,119.148c-1.087.27.628,2.5,1.78,2.5,31.931,5.293,64.365.219,96.468-.61C107.641,120.726,116.7,120.654,125.744,121.028Z" transform="translate(1.697 0)" fill="#fff"/>
        <path id="_Ink" data-name="ðŸ– Ink" d="M79.159,122.171a.373.373,0,0,1-.379-.365c-.469-6.8-.774-13.581-1.07-20.134v-.006c-.21-4.657-.343-9.436-.408-14.608l-.264,0h-.013l-.39,0c-3.492.015-7.1.031-10.652.031-3.039,0-5.742-.011-8.264-.035h0a.158.158,0,0,1,.026.04,9.384,9.384,0,0,1,.489,3.606,17.807,17.807,0,0,1-.5,3.922,20.59,20.59,0,0,1-1.124,3.368,25.247,25.247,0,0,1-1.646,3.165,34.748,34.748,0,0,1-4.36,5.635l-.1.111c-.112.118-.229.239-.341.355l-.005.006a8.507,8.507,0,0,0-1.747,2.263,11.93,11.93,0,0,0-.737,2.681c-.045.23-.091.468-.139.7l-.027.129-.917,4.235c-.062.287-.114.6-.17.93-.2,1.211-.432,2.584-1.27,3.347a1.7,1.7,0,0,1-1.147.474,1.809,1.809,0,0,1-1.631-1.207,3.839,3.839,0,0,1,.111-2.4h0c.035-.136.072-.277.1-.413l1.7-7.121a12.467,12.467,0,0,1,1.184-3.373,10.425,10.425,0,0,1,2.429-2.627l.01-.009a30.869,30.869,0,0,0,2.5-2.4,29.443,29.443,0,0,0,2.2-2.674,25.8,25.8,0,0,0,3.322-6.064A21.84,21.84,0,0,0,56.9,90.4c.105-.517.16-1.052.213-1.569a14.932,14.932,0,0,1,.236-1.675.207.207,0,0,1,.149-.146.091.091,0,0,1,.01-.079.082.082,0,0,1,.066-.036l5.157-.331c4.4-.284,9.117-.595,13.748-.945l.809-.058c-.057-5.928-.022-12.306.108-19.5.04-2.237.066-4.512.091-6.713v-.009c.042-3.659.085-7.442.2-11.163.091-3.048.289-6.06.49-8.862.169-2.362.423-4.75.668-7.06.068-.641.138-1.3.207-1.963a.114.114,0,0,1,.227,0l.225,2.175c.25,2.415.532,5.223.73,7.976.239,3.34.4,6.7.475,9.99.278,12.064.324,24.317.344,34.856,1.531-.106,3.119-.212,4.718-.315.946-.061,1.964-.125,3.2-.2l2.722-.165,1.121-.069c.105-.007.214-.016.32-.025h0c.2-.018.412-.036.614-.036a1.433,1.433,0,0,1,1.212.494.791.791,0,0,1,.121.936c-.426.686-1.059.709-1.792.735h-.009l-.147.005-2.241.089c-1.417.055-3.1.118-4.8.166-1.691.048-3.387.086-5.041.114-.017,4.9-.218,9.749-.44,14.7l-.1,2.2c-.3,6.659-.58,12.248-.968,17.884A.374.374,0,0,1,79.159,122.171Zm-48.343-.637a1,1,0,0,1-.894-.5l.113.075a.182.182,0,0,0,.034.019c0-.005-.115-.094-.367-.279l-.272-.352a2.2,2.2,0,0,1-.374-.941,5.467,5.467,0,0,1,.022-1.264c.014-.145.028-.294.037-.436l.624-9.626c.179-2.764.372-5.56.558-8.264.32-4.648.651-9.453.922-14.187.177-3.1.344-6.772.244-10.478-.057-2.106-.132-3.722-.242-5.238-.14-1.916-.336-3.619-.6-5.207a.326.326,0,0,1,.071-.269.313.313,0,0,1,.234-.112.292.292,0,0,1,.248.148,22.542,22.542,0,0,1,1.442,2.65,23.9,23.9,0,0,1,1.065,2.761,30.126,30.126,0,0,1,1.194,5.853,47.851,47.851,0,0,1,.262,5.386c0,1.944-.1,3.9-.181,5.393-.208,3.792-.45,7.583-.7,11.458l-.38,5.855-.952,14.679a4.485,4.485,0,0,1-.292,1.457,2.009,2.009,0,0,1-.919,1.036,2.162,2.162,0,0,1-.373.256A1.12,1.12,0,0,1,30.816,121.533ZM2.468,121.3a1.541,1.541,0,0,1-.957-.333,1.8,1.8,0,0,1-.591-.85A17.263,17.263,0,0,1,.153,116.4a32.972,32.972,0,0,1-.15-3.8,43.936,43.936,0,0,1,.806-7.557c.614-3.357,1.469-6.721,2.3-9.974h0v-.005c.382-1.5.777-3.053,1.142-4.584.507-2.124.939-4.287,1.282-6.428s.609-4.324.793-6.507c.094-1.117.181-2.254.264-3.354v-.009c.256-3.368.521-6.85,1.048-10.248a46.325,46.325,0,0,1,1.5-6.53,44.714,44.714,0,0,1,2.45-6.236A80.386,80.386,0,0,1,17.924,40.61c1.459-2.11,2.961-4.121,4.466-5.976,1.605-1.979,3.27-3.852,4.949-5.567a1.922,1.922,0,0,1-.927-.3A2.805,2.805,0,0,1,25.4,27.6a4.772,4.772,0,0,1-.435-1.5,20.493,20.493,0,0,1-.152-3.564,17.008,17.008,0,0,1,.527-3.524,13.12,13.12,0,0,1,2.574-5.047,11.334,11.334,0,0,1,2.063-1.931A10.409,10.409,0,0,1,32.5,10.7a9.212,9.212,0,0,1,2.944-.493c.088,0,.181,0,.286,0,.154,0,.31,0,.459,0h0c.152,0,.309,0,.467,0a5.471,5.471,0,0,0,1.685-.206,3.049,3.049,0,0,0,1.573-1.31,11.445,11.445,0,0,0,.945-1.919l.109-.262L41,6.454a12.029,12.029,0,0,1,1.224-2.287,7.138,7.138,0,0,1,1.837-1.821A14.17,14.17,0,0,1,49.62.418L49.741.4a28.231,28.231,0,0,1,4.6-.4,18.039,18.039,0,0,1,8.491,1.91.036.036,0,0,1,.017.041.036.036,0,0,1-.034.029h0L61.53,1.929c-1.549-.061-2.849-.1-4.155-.1-1.474,0-2.779.054-3.988.165a27.908,27.908,0,0,0-3.961.636l-.409.1a17.516,17.516,0,0,0-2.154.64,6.94,6.94,0,0,0-1.942,1.089,5.441,5.441,0,0,0-1.275,1.6,17.394,17.394,0,0,0-.858,1.878l-.05.122-.071.17a10.116,10.116,0,0,1-.956,1.817A5.4,5.4,0,0,1,40.276,11.5a5.2,5.2,0,0,1-1.982.779,15.769,15.769,0,0,1-2.13.206h0c-.324.017-.66.034-.987.06a7.2,7.2,0,0,0-2.19.533,8.07,8.07,0,0,0-1.914,1.137,9.277,9.277,0,0,0-1.572,1.6,9.965,9.965,0,0,0-1.164,1.927,13.871,13.871,0,0,0-1.144,5.3,16.738,16.738,0,0,0,.085,2.786,4.383,4.383,0,0,0,.233.773c.082.208.235.557.344.557h.007a.961.961,0,0,1,.132-.009.824.824,0,0,1,.779.492c1.035-1,2.085-1.953,3.122-2.836a60.048,60.048,0,0,1,8.587-6.11,56.027,56.027,0,0,1,7.285-3.706h-.029a1.2,1.2,0,0,0-.561.135.084.084,0,0,1-.118-.042A.08.08,0,0,1,47.077,15a2.685,2.685,0,0,1,.911-.641,2.567,2.567,0,0,1,.991-.191,3.6,3.6,0,0,1,.809.1c.221-.07.423-.132.617-.188a.1.1,0,0,1,.027,0,.084.084,0,0,1,.08.064.093.093,0,0,1-.038.107l-.236.151a12.826,12.826,0,0,1,2.879,1.576l.015.01a53.177,53.177,0,0,1,5.914,4.832l.009.008.572.514.38.34a44.6,44.6,0,0,0,5.817,4.554,20.559,20.559,0,0,0,3.449,1.8c.235.092.5.176.781.265.959.3,2.046.646,2.42,1.49a.99.99,0,0,1,.233.778,1.133,1.133,0,0,1-.487.763,1.668,1.668,0,0,1-1.294.5,6.67,6.67,0,0,1-2.27-.554,24.087,24.087,0,0,1-3.533-1.7,37.394,37.394,0,0,1-6.092-4.583c-1.3-1.178-2.581-2.426-3.815-3.633-.625-.611-1.27-1.242-1.915-1.86-.4-.384-.8-.779-1.194-1.161-.415-.407-.844-.827-1.273-1.236l-.417-.394-.2-.191a8.336,8.336,0,0,0-1.47-1.2c-.466.278-.941.555-1.4.823-.742.433-1.509.88-2.252,1.339-1.506.929-3.114,2.007-4.918,3.3a75.255,75.255,0,0,0-8.741,7.34c-1.22,1.19-2.433,2.46-3.606,3.774-1.131,1.267-2.257,2.613-3.348,4a101.2,101.2,0,0,0-6,8.537l-.282.448c-1.237,1.975-2.2,3.612-3.02,5.151a46.338,46.338,0,0,0-2.5,5.416,40.052,40.052,0,0,0-1.792,6.281,60.833,60.833,0,0,0-.933,6.47c-.188,1.983-.32,4-.448,5.957-.151,2.3-.307,4.678-.554,7.009-.219,2.067-.546,4.216-1,6.572-.372,1.925-.828,3.988-1.437,6.493l-.25,1.023-.15.611-.009.038h0A95.683,95.683,0,0,0,3.856,106.93a45.87,45.87,0,0,0-.382,6.388,44.951,44.951,0,0,0,.492,5.2v.01c.05.376.1.764.152,1.147a1.29,1.29,0,0,1-.4,1.064,1.856,1.856,0,0,1-1.013.535A1.62,1.62,0,0,1,2.468,121.3ZM129.6,119.131a1.842,1.842,0,0,1-1.2-.428,1.734,1.734,0,0,1-.588-1.282,87.873,87.873,0,0,0-.914-9.067c-.443-3-1-6.032-1.539-8.966v0c-.432-2.354-.879-4.788-1.266-7.2-.469-2.917-.84-6.126-1.137-9.809-.264-3.283-.445-6.633-.62-9.872v0c-.224-4.14-.455-8.42-.862-12.607-.219-2.253-.47-4.3-.768-6.258-.334-2.2-.717-4.226-1.172-6.2a65.383,65.383,0,0,0-2.549-8.469,56.923,56.923,0,0,0-3.752-8.006c-.757-1.328-1.542-2.58-2.335-3.72a37.653,37.653,0,0,0-2.7-3.459,46.511,46.511,0,0,0-5.349-5.28,1.156,1.156,0,0,1-.828.324,1.516,1.516,0,0,1-.814-.243,1.358,1.358,0,0,1-.55-.683,4.566,4.566,0,0,1-.194-1.158,6.47,6.47,0,0,0-.107-.851,9.967,9.967,0,0,0-.561-1.78,11.7,11.7,0,0,0-2.027-3.155,12.747,12.747,0,0,0-1.436-1.371A13.577,13.577,0,0,0,94.7,8.449a10.429,10.429,0,0,0-2.249-.914c-.456-.144-.927-.294-1.385-.483a.05.05,0,0,1-.032-.047.045.045,0,0,1,.032-.041,3.972,3.972,0,0,1,1.3-.2,10.386,10.386,0,0,1,2.931.554,9.876,9.876,0,0,1,2.051.915,12.661,12.661,0,0,1,1.828,1.309,11.764,11.764,0,0,1,1.625,1.7,11.615,11.615,0,0,1,1.252,1.989l.067.136A13.28,13.28,0,0,1,103,15.587a4.824,4.824,0,0,1,.161,2.315c-.009.041-.02.081-.032.118a30.145,30.145,0,0,1,3.738,2.174,25.689,25.689,0,0,1,3.356,2.738,36.918,36.918,0,0,1,3.38,3.778,41.928,41.928,0,0,1,2.862,4.185,46.874,46.874,0,0,1,2.342,4.433c.678,1.466,1.306,3.018,1.868,4.615.533,1.513,1.023,3.115,1.458,4.762.408,1.545.781,3.184,1.109,4.873.581,2.991,1.046,6.242,1.42,9.939.348,3.429.577,6.813.772,9.96l.2,3.339c.247,4.015.481,7.387.818,10.793.393,3.975.883,7.481,1.5,10.718l.1.513c.3,1.56.639,3.15.963,4.688v0c.614,2.908,1.249,5.916,1.7,8.9.242,1.6.412,3.072.519,4.484a43.321,43.321,0,0,1,.12,4.512,1.71,1.71,0,0,1-.565,1.283A1.8,1.8,0,0,1,129.6,119.131Zm-19.965-1.34a1.315,1.315,0,0,1-.987-.43c-.912-.983-.977-2.574-1.034-3.978v0c-.016-.4-.031-.772-.064-1.122-.125-1.33-.268-2.677-.426-4l-.081-.666c-.03-.245-.06-.5-.089-.738a35.388,35.388,0,0,0-.6-3.812,6.414,6.414,0,0,0-1.845-3.251c-.278-.276-.563-.551-.839-.816l0,0c-.678-.654-1.38-1.329-2.012-2.062a28.6,28.6,0,0,1-2.56-3.489A23.51,23.51,0,0,1,97.431,90.1l-.08-.189c-.083-.2-.175-.4-.272-.622a7.95,7.95,0,0,1-.925-3.152.069.069,0,0,1,.116-.048,4.712,4.712,0,0,1,.8,1.1c.088.149.179.3.273.447.394.606.808,1.2,1.229,1.758.868,1.156,1.851,2.262,2.784,3.284a39.8,39.8,0,0,0,2.848,2.815c.375.335.772.664,1.155.981a20.77,20.77,0,0,1,2.1,1.907c1.906,2.079,2.317,4.875,2.715,7.579v.006c.027.183.055.373.083.558l.047.31c.254,1.646.493,3.367.709,5.115v0c.1.767.2,1.637.29,2.494l.026.264a6.063,6.063,0,0,1,.017,1.216,2.53,2.53,0,0,1-.391,1.139,1.633,1.633,0,0,1-.585.534A1.579,1.579,0,0,1,109.631,117.791Zm9.886-.574a1.747,1.747,0,0,1-1.414-.808,5.95,5.95,0,0,1-.611-3.039c-.013-.381-.025-.74-.058-1.062-.152-1.475-.286-2.671-.422-3.763-.308-2.478-.719-4.976-1.118-7.305-.469-2.738-1.063-5.5-1.637-8.178-.485-2.26-.987-4.6-1.411-6.906a88.254,88.254,0,0,1-1.653-15.636c-.019-3.608.239-7.27.488-10.812h0c.117-1.666.239-3.389.33-5.086.265-4.947.581-10.222.967-16.127a.121.121,0,0,1,.124-.117.114.114,0,0,1,.118.117c.027,1.242.053,2.494.084,3.992.051,2.45.083,4.942.115,7.352v0c.053,4.069.108,8.277.253,12.413.162,4.638.422,8.69.794,12.387.239,2.376.582,4.832,1.047,7.508.389,2.239.872,4.672,1.477,7.437.269,1.231.549,2.476.819,3.68l0,.012c.286,1.275.582,2.593.865,3.891.1.455.2.919.3,1.368l.012.052c.435,1.967.884,4,1.229,6.011a74.19,74.19,0,0,1,.963,7.387l.021.323c.014.227.037.473.062.734a13.367,13.367,0,0,1,.088,1.74,3.14,3.14,0,0,1-.393,1.554A1.715,1.715,0,0,1,119.517,117.216ZM78.628,27.836a4.411,4.411,0,0,1-1.917-.466A10.479,10.479,0,0,1,75,26.288l-.125-.094c-1.268-.959-2.405-1.875-3.477-2.8a54.7,54.7,0,0,1-6.423-6.446,44.7,44.7,0,0,1-2.729-3.6,23.7,23.7,0,0,1-2.186-3.945.187.187,0,0,1,.015-.177.16.16,0,0,1,.131-.075.167.167,0,0,1,.115.051c.607.577,1.177,1.177,1.655,1.687.006-.351-.017-.709-.04-1.055a9.053,9.053,0,0,1-.015-1.506c.032-.311.052-.638.071-.954a10.1,10.1,0,0,1,.3-2.233,1.912,1.912,0,0,1,1.814-1.368,1.825,1.825,0,0,1,.483.065,2.005,2.005,0,0,1,1.2,1.015,1.577,1.577,0,0,1,.107,1.28,11.033,11.033,0,0,1-1.158,2.092h0c-.159.244-.324.5-.478.749a10.084,10.084,0,0,1-.943,1.237,10.617,10.617,0,0,0-.892,1.157l.592.638c.262.282.574.615.894.946l1.033,1.07c.767.792,1.594,1.638,2.447,2.46,1.463,1.41,2.612,2.477,3.728,3.459,1.383,1.217,2.675,2.266,3.949,3.2.567.418,1.228.9,1.9,1.345l.241.16a2.587,2.587,0,0,0,1.353.532c.041,0,.082,0,.122-.006,1.11-.1,2.136-1.128,2.96-1.953.145-.145.281-.281.414-.409l.047-.045a50.21,50.21,0,0,0,6.066-6.893c.384-.531.764-1.079,1.16-1.678-.7-.819-.7-2.274-.7-3.443v0c0-.277,0-.539-.009-.774-.032-.811-.036-1.635-.04-2.432V7.39l0-.174V7.153A2.161,2.161,0,0,1,88.9,5.658a.063.063,0,0,1,.051-.021.091.091,0,0,1,.041.01,1.85,1.85,0,0,1,.814,1.07l.007.017.043.1.022.051c.2.457.4.924.589,1.376v0l.007.016.16.378c.227.536.441,1.087.648,1.62l.1.253c.1.261.209.548.327.878.062.18.127.364.2.561l.016.014a1.676,1.676,0,0,1,.233.241,1.172,1.172,0,0,1,.6.764,2.454,2.454,0,0,1-.6,2.02l-.059.091a50.777,50.777,0,0,1-5.758,7.351C85.3,23.557,84.17,24.636,83,25.655l-.2.176a12.157,12.157,0,0,1-1.658,1.238,5.25,5.25,0,0,1-1.922.722A3.98,3.98,0,0,1,78.628,27.836Z" transform="translate(0 2.076)" fill="#212121"/>
      </g>
      <g id="head_Afro" data-name="head/Afro" transform="translate(31.231 1.398)">
        <path id="_Background-2" data-name="ðŸŽ¨ Background" d="M26.569.065c26.5-1.3,38.456,17.354,39.229,25.687.537,5.785-2.881,12.452-2.881,17.621,0,2.638,3.23,8.3,1.727,12.148C61.3,64.08,54.21,73.58,45.178,73.58s-20.785,2.5-30.765-11.791c-.936-1.341-12.78-8.961-13.93-16.2C-2.383,27.551,7.662.995,26.569.065Z" transform="translate(13.36 12.99)" fill="#fff"/>
        <path id="_Ink-2" data-name="ðŸ– Ink" d="M57.867,87.81c-.832,0-1.718-.05-2.791-.156a42.355,42.355,0,0,1-6.713-1.143l-.353-.094A9.853,9.853,0,0,1,45.355,85.4a3.155,3.155,0,0,1-1.025-1.028,4.168,4.168,0,0,1-.517-1.364,1.031,1.031,0,0,1,.2-.843.84.84,0,0,1,.65-.32h.112c.1,0,.2,0,.325-.011l.1-.007H45.2a.056.056,0,0,1,.017,0c.031,0,.061-.011.091-.018s.056-.013.084-.017a3.2,3.2,0,0,1,.529-.045A4.187,4.187,0,0,1,47.273,82l.079.027a31.2,31.2,0,0,0,3.194.951c1.084.247,2.232.456,3.414.622l.114.014.035.005.017,0a.021.021,0,0,1,.011,0l.337.042c.267.032.536.06.8.087h0c.486.049.98.087,1.468.115.283.016.57.024.853.024a15.239,15.239,0,0,0,5.744-1.131,17.344,17.344,0,0,0,4.924-3.067,20.448,20.448,0,0,0,6.166-9.978,21.013,21.013,0,0,0,.676-4.325,31.8,31.8,0,0,0-.078-4.321,2.066,2.066,0,0,1-.115-.7c0-.137.008-.271.016-.4-.151-1.475-.364-2.976-.57-4.428-.184-1.292-.373-2.628-.519-3.945a74.02,74.02,0,0,1-.489-9.843,40.957,40.957,0,0,1,.437-4.841l.082-.578a5.632,5.632,0,0,1-2.742-1.393,5.633,5.633,0,0,1-2.8.751,4.966,4.966,0,0,1-2.616-.72,6.226,6.226,0,0,1-3.271.916,5.646,5.646,0,0,1-2.942-.786,5.115,5.115,0,0,1-1.369.7,4.825,4.825,0,0,1-1.515.246,4.686,4.686,0,0,1-1-.108,4.482,4.482,0,0,1-1.759-.834,5.112,5.112,0,0,1-.885.079c-.083,0-.167,0-.25-.007l-.078.044a5.77,5.77,0,0,1-2.681.731l-.152,0a6.718,6.718,0,0,1-2.2-.445,6.24,6.24,0,0,1-2.45.873,5.665,5.665,0,0,1-.706.044,5.413,5.413,0,0,1-3.028-.894,7.686,7.686,0,0,1-3.8.989,7.908,7.908,0,0,1-2.65-.454,5.958,5.958,0,0,1-1.726,1.844,3.865,3.865,0,0,1,.122,1.385,5.634,5.634,0,0,1-.57,2.042,3.654,3.654,0,0,1,.242,2.352,5.8,5.8,0,0,1-1.856,3.043,5.715,5.715,0,0,1-2.827,4.688,2.333,2.333,0,0,1-.257.128,1.269,1.269,0,0,1-.268.27,3.127,3.127,0,0,1-2.171.769,5.215,5.215,0,0,1-1.981-.414l-.029,0h0l-.048,0h-.044a1.122,1.122,0,0,1-.966-.455,4.535,4.535,0,0,0-.591.068,8.219,8.219,0,0,0-2.163.729,4.859,4.859,0,0,0-1.1.773,4.634,4.634,0,0,0-.8.99,6.359,6.359,0,0,0-.808,2.5,6.81,6.81,0,0,0,.262,2.964,5.755,5.755,0,0,0,.635,1.333,5.473,5.473,0,0,0,.989,1.142,5.16,5.16,0,0,0,1.272.811,6.05,6.05,0,0,0,1.443.444,4.146,4.146,0,0,0,.721.053c.113,0,.227,0,.338,0H22.8c.109,0,.223,0,.333,0a3.082,3.082,0,0,1,.888.1,1.606,1.606,0,0,1,.772.506.731.731,0,0,1,.183.694,1.6,1.6,0,0,1-1.425,1.187,39.589,39.589,0,0,0,3.212,3.451c.242.228.491.458.731.681l.009.008a38.977,38.977,0,0,1,2.925,2.914A24.063,24.063,0,0,1,32.1,75.194a14.838,14.838,0,0,1,1.34,2.35c.327.731.609,1.492.882,2.229h0c.083.225.17.458.256.686l.066.17c.045.115.093.231.14.343a6.149,6.149,0,0,1,.446,1.373,2.2,2.2,0,0,1,0,.7,2.054,2.054,0,0,1-.262.712,1.742,1.742,0,0,1-.519.537,1.3,1.3,0,0,1-.711.241.9.9,0,0,1-.116-.007c-1.507-.193-1.991-1.241-2.427-2.488-.148-.423-.283-.859-.413-1.28-.172-.557-.351-1.133-.561-1.687-.064-.167-.137-.342-.223-.536a2.831,2.831,0,0,1-.76.1,3.373,3.373,0,0,1-1.788-.539,6.164,6.164,0,0,1-2.479.525h-.1a6.223,6.223,0,0,1-1.664-.252,5.839,5.839,0,0,1-1.477-.674l-.043-.011-.01,0h0l-.163-.044a4.932,4.932,0,0,1-1.77.329,4.408,4.408,0,0,1-2.508-.755,4.607,4.607,0,0,1-1.032-.966,4.518,4.518,0,0,1-.658-1.17,4.46,4.46,0,0,1-1.537-.3,3.818,3.818,0,0,1-1.313-.843,4.162,4.162,0,0,1-.824-1.158,4.38,4.38,0,0,1-.394-1.333,4.534,4.534,0,0,1-1.3-.469,4.281,4.281,0,0,1-1.122-.888,3.956,3.956,0,0,1-.671-1.034,4.371,4.371,0,0,1-.339-1.183,4.681,4.681,0,0,1-1.532-.762A3.99,3.99,0,0,1,5.4,65.828a3.856,3.856,0,0,1-.448-1.442,3.939,3.939,0,0,1,.117-1.433L5,62.861a4.222,4.222,0,0,1-1.44-1.182,3.255,3.255,0,0,1-.654-1.78,3.436,3.436,0,0,1,.125-1.168,3.508,3.508,0,0,1,.1-1.244,5.331,5.331,0,0,1-.958-1.264,5.559,5.559,0,0,1-.554-1.479A5.379,5.379,0,0,1,1.5,53.173a4.956,4.956,0,0,1,.37-1.539A5.4,5.4,0,0,1,.506,48.716,5.2,5.2,0,0,1,.532,47.1a4.688,4.688,0,0,1,.549-1.526,4.668,4.668,0,0,1-.843-1.53,4.874,4.874,0,0,1-.231-1.776,6.341,6.341,0,0,1,.53-2.183,11.584,11.584,0,0,1,1.106-1.962,3.644,3.644,0,0,1-.715-1.211A3.879,3.879,0,0,1,.7,35.519a4.4,4.4,0,0,1,.5-1.894,7.162,7.162,0,0,1,1.156-1.6,5.716,5.716,0,0,1-.288-1.812,5.858,5.858,0,0,1,.28-1.767,6.061,6.061,0,0,1,2.035-2.921,3.338,3.338,0,0,1-.409-2.253,3.625,3.625,0,0,1,.869-1.814,7.315,7.315,0,0,1,1.561-1.325,3.317,3.317,0,0,1,.2-2.427,4.166,4.166,0,0,1,1.05-1.354,8.561,8.561,0,0,1,1.42-.98A3.852,3.852,0,0,1,9.5,14.015a4.314,4.314,0,0,1,.849-1.135A4.02,4.02,0,0,1,11.5,12.1a3.242,3.242,0,0,1,1.321-.291,2.917,2.917,0,0,1,1.422.37,2.489,2.489,0,0,1-.069-1.2,3.035,3.035,0,0,1,.456-1.116A3.644,3.644,0,0,1,15.7,8.8a3.319,3.319,0,0,1,1.418-.516,5.338,5.338,0,0,1,.85-1.591,5.9,5.9,0,0,1,1.3-1.236,5.991,5.991,0,0,1,3.385-1.085,5.29,5.29,0,0,1,1.247.148A5.33,5.33,0,0,1,25.871,2.89a5.662,5.662,0,0,1,2.468-.569,5.437,5.437,0,0,1,1.9.338,8.445,8.445,0,0,1,2.506-1.328A8.694,8.694,0,0,1,35.459.9a10.206,10.206,0,0,1,3.221.539,4.006,4.006,0,0,1,1.64-1.1A5.712,5.712,0,0,1,42.3,0c.115,0,.231,0,.345.01a10.645,10.645,0,0,1,2.933.746,10.34,10.34,0,0,0,2.981.745c.132.006.27.009.409.009a18.934,18.934,0,0,0,2.381-.2h0a18.9,18.9,0,0,1,2.37-.2,7.683,7.683,0,0,1,1.227.092,6.48,6.48,0,0,1,1.92.623,4.907,4.907,0,0,1,1.563,1.239,7.218,7.218,0,0,1,1.987-.278,7.43,7.43,0,0,1,1.708.2,7.668,7.668,0,0,1,4.3,2.782,4.465,4.465,0,0,1,.682-.052,5.227,5.227,0,0,1,2.97.971,4.892,4.892,0,0,1,1.872,2.475,6.075,6.075,0,0,1,2.133.469,6.647,6.647,0,0,1,1.857,1.16,5.939,5.939,0,0,1,2.036,3.771A4.7,4.7,0,0,1,80.8,16.746a6.582,6.582,0,0,1,.715,4.053,3.771,3.771,0,0,1,1.58,1.574,6.09,6.09,0,0,1,.683,2.246,3.955,3.955,0,0,1,1.344,1.868,4.8,4.8,0,0,1,.206,2.359A2.713,2.713,0,0,1,86.42,30.1a4.039,4.039,0,0,1,.365,1.689c0,.311-.027.613-.052.906a4.46,4.46,0,0,0,.16,2.1,5.324,5.324,0,0,1,.345,1.289,4.076,4.076,0,0,1-.062,1.321l-.02.093c-.032.146-.061.293-.088.449a2.748,2.748,0,0,1,.648.85,4.213,4.213,0,0,1,.426,1.918,5.649,5.649,0,0,1-.373,1.931,3.847,3.847,0,0,1-.122,2.378,4.386,4.386,0,0,1,.625,1.326,4.216,4.216,0,0,1,.141,1.491A4.6,4.6,0,0,1,87,50.77a4.965,4.965,0,0,1-.277,2.355,5.316,5.316,0,0,1-1.3,2.008,4.134,4.134,0,0,1-.491,2.81,3.868,3.868,0,0,1-1.426,1.435,4.615,4.615,0,0,1-.226,1.595,5.108,5.108,0,0,1-1.19,1.982,4.381,4.381,0,0,1-.04,1.554,4.622,4.622,0,0,1-.565,1.457,4.126,4.126,0,0,1-2.471,1.9,2.215,2.215,0,0,1-.522.074,22.441,22.441,0,0,1-1.413,5.778,23.826,23.826,0,0,1-1.663,3.41,23.535,23.535,0,0,1-2.185,3.1,22.661,22.661,0,0,1-2.661,2.7,21.514,21.514,0,0,1-3.09,2.2,20.019,20.019,0,0,1-3.428,1.593,19.428,19.428,0,0,1-3.667.912A17.21,17.21,0,0,1,57.867,87.81ZM23.9,59.283a.944.944,0,0,1-.883-.571,6.746,6.746,0,0,0-.844-1.406c-.056.078-.106.159-.163.256l-.052.088-.01.017c-.035.059-.072.12-.1.182a1.263,1.263,0,0,1-.044.16l-.006.02a1.34,1.34,0,0,1-.883.865.845.845,0,0,1-.279.048.937.937,0,0,1-.595-.227,1.244,1.244,0,0,1-.374-.529,1.118,1.118,0,0,1,.166-1.056,2.213,2.213,0,0,1,.887-.7,2,2,0,0,0-1.808.633.1.1,0,0,1-.071.032.113.113,0,0,1-.11-.107,1.6,1.6,0,0,1,.184-.827,2,2,0,0,1,.542-.637,2.916,2.916,0,0,1,1.594-.6c.055,0,.11,0,.164,0a3.088,3.088,0,0,1,1.168.234,4.212,4.212,0,0,1,1.019.609,8.484,8.484,0,0,1,1.609,1.786.941.941,0,0,1,.086,1.015A1.408,1.408,0,0,1,23.9,59.283Z" fill="#212121"/>
      </g>
      <g id="face_Driven" data-name="face/Driven" transform="translate(68.356 45.979)">
        <path id="_Ink-3" data-name="ðŸ– Ink" d="M20.14,20.145h0a6.1,6.1,0,0,1-2.176-.439A10.991,10.991,0,0,1,15.4,18.254a.984.984,0,0,1-.357-.568,1.177,1.177,0,0,1,.051-.638,1.451,1.451,0,0,1,.431-.623,1.049,1.049,0,0,1,.671-.262.953.953,0,0,1,.519.159l.175.135h0c.889.688,2.233,1.727,3.522,1.727a2.1,2.1,0,0,0,1.567-.695,2.317,2.317,0,0,0,.44-1.865,5.083,5.083,0,0,0-2.351-2.8.439.439,0,0,1-.119-.5.653.653,0,0,1,.636-.452.891.891,0,0,1,.15.013,4.748,4.748,0,0,1,1.67.6,3.787,3.787,0,0,1,1.123,1.035,4.113,4.113,0,0,1,.717,2.748,4.388,4.388,0,0,1-1.195,2.682A3.955,3.955,0,0,1,20.14,20.145Zm6.76-6.59a1.2,1.2,0,0,1-.9-.4,3.364,3.364,0,0,1-.7-1.585,6.758,6.758,0,0,1-.123-1.621l.009-.134a7.055,7.055,0,0,1,.535-2.344c.313-.681.718-1.041,1.173-1.041a2.08,2.08,0,0,1,1.729,1.412,5.871,5.871,0,0,1,.527,2.248v.039a5.2,5.2,0,0,1-.58,2.138,2.992,2.992,0,0,1-.7.914A1.5,1.5,0,0,1,26.9,13.555Zm-19.116,0a1.5,1.5,0,0,1-.974-.377,2.992,2.992,0,0,1-.7-.914,5.2,5.2,0,0,1-.58-2.138v-.039a5.871,5.871,0,0,1,.527-2.248A2.08,2.08,0,0,1,7.784,6.427c.466,0,.879.377,1.195,1.089A7.27,7.27,0,0,1,9.5,9.945l0,.073a4.928,4.928,0,0,1-.831,3.144A1.2,1.2,0,0,1,7.784,13.555ZM1.105,5.088h0C.946,5.073.789,5.065.635,5.065c-.108,0-.217,0-.325.011L.2,5.085l-.028,0a.166.166,0,0,1-.162-.115A.151.151,0,0,1,.076,4.8c.271-.184.534-.375.788-.559a11.621,11.621,0,0,1,2.1-1.306A20.512,20.512,0,0,1,5.878,1.892l.379-.1.387-.1.262-.069A18.637,18.637,0,0,1,11.494.88a8.659,8.659,0,0,1,.971.053,1.6,1.6,0,0,1,.844.332,1.194,1.194,0,0,1,.425.788,1.278,1.278,0,0,1-.925,1.417,30.036,30.036,0,0,1-3.13.283,29.58,29.58,0,0,0-3.206.295c-.692.115-1.393.25-2.07.381-.347.067-.7.136-1.058.2-.465.087-.946.141-1.412.194-.329.037-.669.076-1,.125l.184.025a.049.049,0,0,1,.041.056A.056.056,0,0,1,1.105,5.088ZM31.465,4.5a3.583,3.583,0,0,1-1.255-.32c-.127-.049-.258-.1-.385-.143l-.4-.138a18.471,18.471,0,0,0-1.836-.545,10.209,10.209,0,0,0-2.253-.269h-.108c-.227,0-.463.024-.691.043-.252.022-.511.045-.764.045A2.481,2.481,0,0,1,22.792,3a1.5,1.5,0,0,1-.911-1.047,1.175,1.175,0,0,1,.35-1.077A2.767,2.767,0,0,1,23.4.2a4.984,4.984,0,0,1,1.46-.2,9.725,9.725,0,0,1,3.328.657,7.828,7.828,0,0,1,2.572,1.515l.072.068.112.107a4.449,4.449,0,0,1,.708.856,1.625,1.625,0,0,1,.273,1.018.269.269,0,0,1-.193.253A1.562,1.562,0,0,1,31.465,4.5Z" fill="#212121"/>
      </g>
      <g id="facial-hair_Moustache_6" data-name="facial-hair/Moustache 6" transform="translate(62 63)">
        <path id="_Ink-4" data-name="ðŸ– Ink" d="M17.432,1.04A10.915,10.915,0,0,0,13.785.075a4.139,4.139,0,0,0-2.207.153,2.155,2.155,0,0,0-.685.683,3.107,3.107,0,0,1-.224-.288C10.349.053,8.391.041,7.8.09a12.934,12.934,0,0,0-4.051.993C1.442,2.073-.5,4.128.113,6.737a.7.7,0,0,0,.845.449L7.886,5.894l1.608-.3a6.884,6.884,0,0,0,1.539-.327,3.1,3.1,0,0,0,.611.172c2.778.549,5.56,1.082,8.341,1.624a.69.69,0,0,0,.83-.471c.4-2.453-1.171-4.521-3.384-5.551" transform="translate(15.337 3.659)" fill="#212121"/>
      </g>
      <path id="Path" d="M6.686.715a1.511,1.511,0,0,1,2.733.357c.57,2.569-2.493,4.942-4.819,5S-.305,4.165.029,1.678c.083-.615.9-.54,1.184-.155l.109.148C2.082,2.693,3.085,3.751,4.5,3.5a2.416,2.416,0,0,0,1.469-.939C6.392,2,6.345,1.317,6.686.715Z" transform="matrix(0.966, 0.259, -0.259, 0.966, 84.133, 69.314)" fill="#212121"/>
    </g>
  </g>
</svg>
